# xmcd
#
# Track frame offsets:
#	182
#	22385
#	39140
#	47942
#	59097
#	81430
#	124162
#	140140
#	166690
#	187362
#	197137
#	218505
#	238190
#	255402
#
# Disc length: 3610 seconds
#
# Revision: 1
# Processed by: cddbd v1.4PL0 Copyright (c) Steve Scherf et al.
# Submitted via: audiograbber 1.80
#
DISCID=d70e180e
DTITLE=KOOL and THE GANG - Greatest Live Hits
DYEAR=1900
DGENRE=
TTITLE0=Victory (live)
TTITLE1=Ladies Night (live)
TTITLE2=Fresh (live)
TTITLE3=Take My Heart (You Can Have It, live)
TTITLE4=Hollywood Swinging (live)
TTITLE5=Too Hot (live)
TTITLE6=Joanna (live)
TTITLE7=Cherish (live)
TTITLE8=Let's Go Dancin' (Ooh La La La, live)
TTITLE9=Get Down On It (live)
TTITLE10=Celebration (live)
TTITLE11=Tonight (live)
TTITLE12=Emergency (live)
TTITLE13=Jungle Boogie (live)
EXTD=
EXTT0=
EXTT1=
EXTT2=
EXTT3=
EXTT4=
EXTT5=
EXTT6=
EXTT7=
EXTT8=
EXTT9=
EXTT10=
EXTT11=
EXTT12=
EXTT13=
PLAYORDER=
